<svg width="0" height="0" class="hidden">
  <symbol fill="none" xmlns="http://www.w3.org/2000/svg" viewBox="0 0 24 24" id="bx_bxl-github">
    <g id="bx:bxl-github">
      <path id="Vector" fill-rule="evenodd" clip-rule="evenodd" d="M12.026 2C6.517 2 2.052 6.465 2.052 11.974C2.052 16.38 4.909 20.119 8.873 21.439C9.372 21.529 9.552 21.222 9.552 20.958C9.552 20.721 9.544 20.093 9.541 19.262C6.766 19.864 6.18 17.924 6.18 17.924C5.728 16.772 5.073 16.465 5.073 16.465C4.168 15.846 5.142 15.86 5.142 15.86C6.144 15.93 6.669 16.888 6.669 16.888C7.559 18.412 9.005 17.972 9.571 17.717C9.662 17.072 9.922 16.632 10.206 16.383C7.992 16.132 5.664 15.276 5.664 11.453C5.664 10.366 6.053 9.474 6.688 8.778C6.587 8.525 6.242 7.51 6.787 6.138C6.787 6.138 7.624 5.869 9.529 7.159C10.3426 6.93767 11.1818 6.8247 12.025 6.823C12.8682 6.82437 13.7075 6.93735 14.521 7.159C16.427 5.868 17.263 6.138 17.263 6.138C17.808 7.51 17.466 8.525 17.362 8.778C18.002 9.474 18.386 10.365 18.386 11.453C18.386 15.286 16.056 16.128 13.834 16.375C14.189 16.683 14.509 17.291 14.509 18.221C14.509 19.555 14.497 20.631 14.497 20.958C14.497 21.225 14.675 21.535 15.184 21.437C19.146 20.115 22 16.379 22 11.974C22 6.465 17.535 2 12.026 2Z" fill="white"></path>
    </g>
  </symbol>
  <symbol fill="none" xmlns="http://www.w3.org/2000/svg" viewBox="0 0 24 24" id="bx_bxl-instagram-alt">
    <g id="bx:bxl-instagram-alt">
      <path id="Vector" d="M20.9471 8.30496C20.937 7.54758 20.7952 6.79773 20.5281 6.08896C20.2964 5.49111 19.9426 4.94816 19.4892 4.49479C19.0359 4.04142 18.4929 3.68761 17.8951 3.45596C17.1954 3.19331 16.4562 3.0513 15.7091 3.03596C14.7471 2.99296 14.4421 2.98096 12.0001 2.98096C9.55807 2.98096 9.24507 2.98096 8.29007 3.03596C7.54323 3.05141 6.80442 3.19343 6.10507 3.45596C5.50713 3.68745 4.96409 4.0412 4.5107 4.49459C4.05732 4.94798 3.70356 5.49102 3.47207 6.08896C3.2089 6.78809 3.06719 7.52707 3.05307 8.27396C3.01007 9.23696 2.99707 9.54196 2.99707 11.984C2.99707 14.426 2.99707 14.738 3.05307 15.694C3.06807 16.442 3.20907 17.18 3.47207 17.881C3.70395 18.4787 4.05797 19.0215 4.51151 19.4747C4.96505 19.9279 5.50813 20.2815 6.10607 20.513C6.8035 20.7862 7.54244 20.9383 8.29107 20.963C9.25407 21.006 9.55907 21.019 12.0011 21.019C14.4431 21.019 14.7561 21.019 15.7111 20.963C16.4582 20.9482 17.1974 20.8066 17.8971 20.544C18.4948 20.312 19.0376 19.9581 19.4909 19.5048C19.9442 19.0515 20.2982 18.5086 20.5301 17.911C20.7931 17.211 20.9341 16.473 20.9491 15.724C20.9921 14.762 21.0051 14.457 21.0051 12.014C21.0031 9.57196 21.0031 9.26196 20.9471 8.30496ZM11.9941 16.602C9.44007 16.602 7.37107 14.533 7.37107 11.979C7.37107 9.42496 9.44007 7.35596 11.9941 7.35596C13.2202 7.35596 14.396 7.84302 15.263 8.71C16.13 9.57698 16.6171 10.7529 16.6171 11.979C16.6171 13.2051 16.13 14.3809 15.263 15.2479C14.396 16.1149 13.2202 16.602 11.9941 16.602ZM16.8011 8.26296C16.6595 8.26309 16.5192 8.2353 16.3884 8.18117C16.2575 8.12704 16.1386 8.04764 16.0385 7.94751C15.9384 7.84738 15.859 7.72849 15.8049 7.59765C15.7507 7.4668 15.7229 7.32656 15.7231 7.18496C15.7231 7.04346 15.7509 6.90334 15.8051 6.77262C15.8592 6.64189 15.9386 6.5231 16.0387 6.42305C16.1387 6.32299 16.2575 6.24363 16.3882 6.18948C16.519 6.13533 16.6591 6.10746 16.8006 6.10746C16.9421 6.10746 17.0822 6.13533 17.2129 6.18948C17.3436 6.24363 17.4624 6.32299 17.5625 6.42305C17.6625 6.5231 17.7419 6.64189 17.7961 6.77262C17.8502 6.90334 17.8781 7.04346 17.8781 7.18496C17.8781 7.78096 17.3961 8.26296 16.8011 8.26296Z" fill="white"></path>
      <path id="Vector_2" d="M11.994 14.982C13.6525 14.982 14.997 13.6375 14.997 11.979C14.997 10.3204 13.6525 8.97595 11.994 8.97595C10.3355 8.97595 8.99097 10.3204 8.99097 11.979C8.99097 13.6375 10.3355 14.982 11.994 14.982Z" fill="white"></path>
    </g>
  </symbol>
  <symbol fill="none" xmlns="http://www.w3.org/2000/svg" viewBox="0 0 24 24" id="bx_bxl-linkedin-square">
    <g id="bx:bxl-linkedin-square">
      <path id="Vector" d="M20 3H4C3.73478 3 3.48043 3.10536 3.29289 3.29289C3.10536 3.48043 3 3.73478 3 4V20C3 20.2652 3.10536 20.5196 3.29289 20.7071C3.48043 20.8946 3.73478 21 4 21H20C20.2652 21 20.5196 20.8946 20.7071 20.7071C20.8946 20.5196 21 20.2652 21 20V4C21 3.73478 20.8946 3.48043 20.7071 3.29289C20.5196 3.10536 20.2652 3 20 3ZM8.339 18.337H5.667V9.747H8.339V18.337ZM7.003 8.574C6.59244 8.574 6.1987 8.41091 5.9084 8.1206C5.61809 7.8303 5.455 7.43655 5.455 7.026C5.455 6.61544 5.61809 6.22171 5.9084 5.9314C6.1987 5.64109 6.59244 5.478 7.003 5.478C7.41356 5.478 7.80729 5.64109 8.0976 5.9314C8.38791 6.22171 8.551 6.61544 8.551 7.026C8.551 7.43655 8.38791 7.8303 8.0976 8.1206C7.80729 8.41091 7.41356 8.574 7.003 8.574ZM18.338 18.337H15.669V14.16C15.669 13.164 15.651 11.883 14.281 11.883C12.891 11.883 12.68 12.969 12.68 14.09V18.338H10.013V9.748H12.573V10.922H12.61C12.965 10.247 13.837 9.535 15.134 9.535C17.838 9.535 18.337 11.313 18.337 13.627V18.337H18.338Z" fill="white"></path>
    </g>
  </symbol>
  <symbol fill="none" xmlns="http://www.w3.org/2000/svg" viewBox="0 0 24 24" id="bx_bxl-twitter">
    <g id="bx:bxl-twitter">
      <path id="Vector" d="M19.633 7.99704C19.646 8.17204 19.646 8.34604 19.646 8.52004C19.646 13.845 15.593 19.981 8.186 19.981C5.904 19.981 3.784 19.32 2 18.172C2.324 18.209 2.636 18.222 2.973 18.222C4.78599 18.2264 6.54765 17.6202 7.974 16.501C7.13342 16.4858 6.31858 16.2085 5.64324 15.7078C4.9679 15.2071 4.46578 14.5079 4.207 13.708C4.456 13.745 4.706 13.77 4.968 13.77C5.329 13.77 5.692 13.72 6.029 13.633C5.11676 13.4489 4.29647 12.9544 3.70762 12.2337C3.11876 11.5131 2.79769 10.6107 2.799 9.68004V9.63004C3.336 9.92904 3.959 10.116 4.619 10.141C4.06609 9.77363 3.61272 9.27507 3.29934 8.68983C2.98596 8.1046 2.82231 7.4509 2.823 6.78704C2.823 6.03904 3.022 5.35304 3.371 4.75504C4.38314 6.00006 5.6455 7.0186 7.07634 7.7447C8.50717 8.4708 10.0746 8.88826 11.677 8.97004C11.615 8.67004 11.577 8.35904 11.577 8.04704C11.5767 7.518 11.6807 6.9941 11.8831 6.50528C12.0854 6.01647 12.3821 5.57232 12.7562 5.19823C13.1303 4.82414 13.5744 4.52745 14.0632 4.32512C14.5521 4.12279 15.076 4.01878 15.605 4.01904C16.765 4.01904 17.812 4.50504 18.548 5.29104C19.4498 5.11666 20.3145 4.78747 21.104 4.31804C20.8034 5.24886 20.1738 6.03815 19.333 6.53804C20.1328 6.44682 20.9144 6.2365 21.652 5.91404C21.1011 6.71714 20.4185 7.42139 19.633 7.99704Z" fill="white"></path>
    </g>
  </symbol>
</svg>